<?xml version="1.0" encoding="UTF-8" standalone="no"?>
<!-- Created with Inkscape (http://www.inkscape.org/) -->

<svg
   width="16.65625mm"
   height="26.183596mm"
   viewBox="0 0 16.65625 26.183596"
   version="1.1"
   id="svg1"
   inkscape:version="1.3 (0e150ed6c4, 2023-07-21)"
   sodipodi:docname="marker.svg"
   xmlns:inkscape="http://www.inkscape.org/namespaces/inkscape"
   xmlns:sodipodi="http://sodipodi.sourceforge.net/DTD/sodipodi-0.dtd"
   xmlns="http://www.w3.org/2000/svg"
   xmlns:svg="http://www.w3.org/2000/svg">
  <sodipodi:namedview
     id="namedview1"
     pagecolor="#ffffff"
     bordercolor="#cccccc"
     borderopacity="1"
     inkscape:showpageshadow="0"
     inkscape:pageopacity="1"
     inkscape:pagecheckerboard="0"
     inkscape:deskcolor="#d1d1d1"
     inkscape:document-units="mm"
     inkscape:zoom="8.3597643"
     inkscape:cx="171.8948"
     inkscape:cy="156.88241"
     inkscape:window-width="2560"
     inkscape:window-height="1369"
     inkscape:window-x="2552"
     inkscape:window-y="-8"
     inkscape:window-maximized="1"
     inkscape:current-layer="svg1" />
  <defs
     id="defs1" />
  <g
     id="g1"
     inkscape:label="White"
     inkscape:export-filename="..\..\Videos\g1.svg"
     inkscape:export-xdpi="96"
     inkscape:export-ydpi="96"
     transform="translate(-30.917969,-24.207031)">
    <g
       id="path1">
      <path
         style="color:#000000;fill:#ffffff;-inkscape-stroke:none"
         d="m 46.841433,32.535805 c 0,4.195104 -4.306823,11.096641 -7.595908,16.445426 -3.289084,-5.475383 -7.595907,-12.250323 -7.595907,-16.445426 0,-4.195104 3.400803,-7.595908 7.595907,-7.595908 4.195104,0 7.595908,3.400804 7.595908,7.595908 z"
         id="path3" />
      <path
         style="color:#000000;fill:#000000;-inkscape-stroke:none"
         d="m 39.246094,24.207031 c -4.590972,0 -8.328125,3.737154 -8.328125,8.328125 0,2.348218 1.13669,5.136562 2.644531,8.078125 1.507841,2.941563 3.414148,6.015065 5.054687,8.746094 l 0.621094,1.03125 0.63086,-1.025391 c 1.643449,-2.672614 3.552341,-5.748716 5.060546,-8.707031 1.508206,-2.958314 2.644532,-5.774828 2.644532,-8.123047 0,-4.590972 -3.737153,-8.328125 -8.328125,-8.328125 z m 0,1.464844 c 3.799228,0 6.863281,3.064053 6.863281,6.863281 0,1.846881 -1.016901,4.580564 -2.484375,7.458985 -1.283838,2.518221 -2.892952,5.111732 -4.376953,7.527343 -1.486549,-2.462015 -3.09832,-5.072281 -4.382813,-7.578125 -1.467838,-2.863522 -2.482422,-5.561322 -2.482422,-7.408203 0,-3.799228 3.064054,-6.863281 6.863282,-6.863281 z"
         id="path4" />
    </g>
    <path
       id="path1-8"
       style="stroke-width:0.114567"
       d="m 42.53461,32.535805 a 3.2890847,3.2890847 0 0 1 -3.289085,3.289084 3.2890847,3.2890847 0 0 1 -3.289084,-3.289084 3.2890847,3.2890847 0 0 1 3.289084,-3.289085 3.2890847,3.2890847 0 0 1 3.289085,3.289085 z" />
  </g>
</svg>
